<svg width="24" height="24" viewBox="0 0 24 24" fill="none" xmlns="http://www.w3.org/2000/svg">
<path d="M13.832 16.568C14.0385 16.6628 14.2712 16.6845 14.4917 16.6294C14.7122 16.5744 14.9073 16.4458 15.045 16.265L15.4 15.8C15.5863 15.5516 15.8279 15.35 16.1056 15.2111C16.3833 15.0723 16.6895 15 17 15H20C20.5304 15 21.0391 15.2107 21.4142 15.5858C21.7893 15.9609 22 16.4696 22 17V20C22 20.5304 21.7893 21.0391 21.4142 21.4142C21.0391 21.7893 20.5304 22 20 22C15.2261 22 10.6477 20.1036 7.27208 16.7279C3.89642 13.3523 2 8.7739 2 4C2 3.46957 2.21071 2.96086 2.58579 2.58579C2.96086 2.21071 3.46957 2 4 2H7C7.53043 2 8.03914 2.21071 8.41421 2.58579C8.78929 2.96086 9 3.46957 9 4V7C9 7.31049 8.92771 7.61672 8.78885 7.89443C8.65 8.17214 8.44839 8.41371 8.2 8.6L7.732 8.951C7.54842 9.09118 7.41902 9.29059 7.36579 9.51535C7.31256 9.74012 7.33878 9.97638 7.44 10.184C8.80668 12.9599 11.0544 15.2048 13.832 16.568Z" stroke="#717680" stroke-width="2" stroke-linecap="round" stroke-linejoin="round"/>
</svg>
